<svg width="58" height="57" viewBox="0 0 58 57" fill="none" xmlns="http://www.w3.org/2000/svg">
<g clip-path="url(#clip0)">
<path d="M30.329 17.6812C31.3053 16.7049 31.3053 15.122 30.329 14.1456C29.3527 13.1693 27.7698 13.1693 26.7935 14.1456C25.8172 15.122 25.8172 16.7049 26.7935 17.6812C27.7698 18.6575 29.3527 18.6575 30.329 17.6812Z" fill="black"/>
<path d="M37.8616 9.47194C35.7694 8.55967 32.5199 7.47399 28.921 7.48255C25.3348 7.49089 22.1393 8.58453 20.09 9.50045C17.8402 10.506 16.3828 12.7477 16.377 15.2113L16.3566 23.8682C16.3506 26.4343 17.9495 28.7746 20.3353 29.6917C21.0752 29.9762 21.8239 30.2296 22.5725 30.449L22.5725 49.4938C22.5725 49.9082 22.7371 50.3057 23.0302 50.5987L27.8915 55.4601C28.5017 56.0703 29.491 56.0703 30.1012 55.4601L34.9625 50.5987C35.5727 49.9885 35.5727 48.9992 34.9625 48.389L32.9738 46.4003L34.9625 44.4115C35.5727 43.8013 35.5727 42.812 34.9625 42.2018L32.9738 40.2131L34.9625 38.2244C35.5727 37.6142 35.5727 36.6249 34.9625 36.0147C34.3523 35.4045 33.363 35.4045 32.7528 36.0147L29.6593 39.1083C29.049 39.7185 29.049 40.7078 29.6593 41.318L31.6479 43.3066L29.6593 45.2954C29.049 45.9056 29.049 46.8949 29.6593 47.5051L31.648 49.4939L28.9963 52.1455L25.6975 48.8466L25.6975 29.2516C25.6975 28.5317 25.2058 27.905 24.5066 27.7338C23.4926 27.4856 22.4665 27.163 21.4567 26.7747C20.2723 26.3194 19.4787 25.1543 19.4817 23.8753L19.502 15.2185C19.505 13.9826 20.2363 12.858 21.3653 12.3533C23.1385 11.5608 25.8899 10.6145 28.9285 10.6074C31.9855 10.6002 34.7945 11.5436 36.6125 12.3363C37.7471 12.8311 38.4783 13.9511 38.4754 15.1897L38.4549 23.9512C38.4518 25.2269 37.6834 26.3674 36.4973 26.8567C35.519 27.2602 34.5084 27.588 33.4939 27.8308C32.6547 28.0316 32.1372 28.8748 32.3381 29.7141C32.5389 30.5533 33.3821 31.0709 34.2213 30.87C35.3938 30.5894 36.5605 30.211 37.6889 29.7456C40.0467 28.7731 41.5738 26.5014 41.5798 23.9586L41.6004 15.1972C41.6063 12.7121 40.1387 10.4649 37.8616 9.47194Z" fill="black"/>
</g>
<defs>
<clipPath id="clip0">
<rect width="40" height="40" fill="white" transform="translate(0.715698 28.2843) rotate(-45)"/>
</clipPath>
</defs>
</svg>
